<svg width="34" height="47" viewBox="0 0 34 47" fill="none" xmlns="http://www.w3.org/2000/svg">
<path fill-rule="evenodd" clip-rule="evenodd" d="M16.9993 4.41492C10.3763 4.41492 4.99927 9.79192 4.99927 16.4149C4.99927 23.0379 10.3763 28.4149 16.9993 28.4149C23.6223 28.4149 28.9993 23.0379 28.9993 16.4149C28.9993 9.79192 23.6223 4.41492 16.9993 4.41492ZM16.9993 6.41492C22.5183 6.41492 26.9993 10.8959 26.9993 16.4149C26.9993 21.9339 22.5183 26.4149 16.9993 26.4149C11.4803 26.4149 6.99927 21.9339 6.99927 16.4149C6.99927 10.8959 11.4803 6.41492 16.9993 6.41492Z" fill="black"/>
<path fill-rule="evenodd" clip-rule="evenodd" d="M16.9993 4.41492C10.3763 4.41492 4.99927 9.79192 4.99927 16.4149C4.99927 23.0379 10.3763 28.4149 16.9993 28.4149C23.6223 28.4149 28.9993 23.0379 28.9993 16.4149C28.9993 9.79192 23.6223 4.41492 16.9993 4.41492ZM16.9993 6.41492C22.5183 6.41492 26.9993 10.8959 26.9993 16.4149C26.9993 21.9339 22.5183 26.4149 16.9993 26.4149C11.4803 26.4149 6.99927 21.9339 6.99927 16.4149C6.99927 10.8959 11.4803 6.41492 16.9993 6.41492Z" fill="url(#paint0_linear_204_883)"/>
<path fill-rule="evenodd" clip-rule="evenodd" d="M16.9993 0.414917C8.16827 0.414917 0.999268 7.58392 0.999268 16.4149C0.999268 25.2459 8.16827 32.4149 16.9993 32.4149C25.8303 32.4149 32.9993 25.2459 32.9993 16.4149C32.9993 7.58392 25.8303 0.414917 16.9993 0.414917ZM16.9993 2.41492C24.7263 2.41492 30.9993 8.68792 30.9993 16.4149C30.9993 24.1419 24.7263 30.4149 16.9993 30.4149C9.27227 30.4149 2.99927 24.1419 2.99927 16.4149C2.99927 8.68792 9.27227 2.41492 16.9993 2.41492Z" fill="black"/>
<path fill-rule="evenodd" clip-rule="evenodd" d="M16.9993 0.414917C8.16827 0.414917 0.999268 7.58392 0.999268 16.4149C0.999268 25.2459 8.16827 32.4149 16.9993 32.4149C25.8303 32.4149 32.9993 25.2459 32.9993 16.4149C32.9993 7.58392 25.8303 0.414917 16.9993 0.414917ZM16.9993 2.41492C24.7263 2.41492 30.9993 8.68792 30.9993 16.4149C30.9993 24.1419 24.7263 30.4149 16.9993 30.4149C9.27227 30.4149 2.99927 24.1419 2.99927 16.4149C2.99927 8.68792 9.27227 2.41492 16.9993 2.41492Z" fill="url(#paint1_linear_204_883)"/>
<path fill-rule="evenodd" clip-rule="evenodd" d="M16.0063 11.4149H15.9993C14.3433 11.4149 12.9993 12.7589 12.9993 14.4149C12.9993 16.0709 14.3433 17.4149 15.9993 17.4149H17.9993C18.5513 17.4149 18.9993 17.8629 18.9993 18.4149C18.9993 18.9669 18.5513 19.4149 17.9993 19.4149H14.9993C14.4473 19.4149 13.9993 19.8629 13.9993 20.4149C13.9993 20.9669 14.4473 21.4149 14.9993 21.4149H16.0053V22.4149C16.0053 22.9669 16.4533 23.4149 17.0053 23.4149C17.5573 23.4149 18.0053 22.9669 18.0053 22.4149V21.4149C19.6583 21.4119 20.9993 20.0689 20.9993 18.4149C20.9993 16.7589 19.6553 15.4149 17.9993 15.4149H15.9993C15.4473 15.4149 14.9993 14.9669 14.9993 14.4149C14.9993 13.8629 15.4473 13.4149 15.9993 13.4149H18.9993C19.5513 13.4149 19.9993 12.9669 19.9993 12.4149C19.9993 11.8629 19.5513 11.4149 18.9993 11.4149H18.0063V10.4149C18.0063 9.86292 17.5583 9.41492 17.0063 9.41492C16.4543 9.41492 16.0063 9.86292 16.0063 10.4149V11.4149Z" fill="black"/>
<path fill-rule="evenodd" clip-rule="evenodd" d="M16.0063 11.4149H15.9993C14.3433 11.4149 12.9993 12.7589 12.9993 14.4149C12.9993 16.0709 14.3433 17.4149 15.9993 17.4149H17.9993C18.5513 17.4149 18.9993 17.8629 18.9993 18.4149C18.9993 18.9669 18.5513 19.4149 17.9993 19.4149H14.9993C14.4473 19.4149 13.9993 19.8629 13.9993 20.4149C13.9993 20.9669 14.4473 21.4149 14.9993 21.4149H16.0053V22.4149C16.0053 22.9669 16.4533 23.4149 17.0053 23.4149C17.5573 23.4149 18.0053 22.9669 18.0053 22.4149V21.4149C19.6583 21.4119 20.9993 20.0689 20.9993 18.4149C20.9993 16.7589 19.6553 15.4149 17.9993 15.4149H15.9993C15.4473 15.4149 14.9993 14.9669 14.9993 14.4149C14.9993 13.8629 15.4473 13.4149 15.9993 13.4149H18.9993C19.5513 13.4149 19.9993 12.9669 19.9993 12.4149C19.9993 11.8629 19.5513 11.4149 18.9993 11.4149H18.0063V10.4149C18.0063 9.86292 17.5583 9.41492 17.0063 9.41492C16.4543 9.41492 16.0063 9.86292 16.0063 10.4149V11.4149Z" fill="url(#paint2_linear_204_883)"/>
<path fill-rule="evenodd" clip-rule="evenodd" d="M3.99926 39.5009L1.70626 37.2079C1.31626 36.8179 0.682256 36.8179 0.292256 37.2079C-0.0977441 37.5979 -0.0977441 38.2319 0.292256 38.6219C0.292256 38.6219 1.72726 40.0569 2.87826 41.2079C3.44026 41.7699 4.20326 42.0869 4.99926 42.0869C5.79526 42.0869 6.55826 41.7699 7.12026 41.2079C8.27126 40.0569 9.70626 38.6219 9.70626 38.6219C10.0963 38.2319 10.0963 37.5979 9.70626 37.2079C9.31626 36.8179 8.68226 36.8179 8.29226 37.2079L5.99926 39.5009V31.4149C5.99926 30.8629 5.55126 30.4149 4.99926 30.4149C4.44726 30.4149 3.99926 30.8629 3.99926 31.4149V39.5009Z" fill="black"/>
<path fill-rule="evenodd" clip-rule="evenodd" d="M3.99926 39.5009L1.70626 37.2079C1.31626 36.8179 0.682256 36.8179 0.292256 37.2079C-0.0977441 37.5979 -0.0977441 38.2319 0.292256 38.6219C0.292256 38.6219 1.72726 40.0569 2.87826 41.2079C3.44026 41.7699 4.20326 42.0869 4.99926 42.0869C5.79526 42.0869 6.55826 41.7699 7.12026 41.2079C8.27126 40.0569 9.70626 38.6219 9.70626 38.6219C10.0963 38.2319 10.0963 37.5979 9.70626 37.2079C9.31626 36.8179 8.68226 36.8179 8.29226 37.2079L5.99926 39.5009V31.4149C5.99926 30.8629 5.55126 30.4149 4.99926 30.4149C4.44726 30.4149 3.99926 30.8629 3.99926 31.4149V39.5009Z" fill="url(#paint3_linear_204_883)"/>
<path fill-rule="evenodd" clip-rule="evenodd" d="M27.9993 39.5009L25.7063 37.2079C25.3163 36.8179 24.6823 36.8179 24.2923 37.2079C23.9023 37.5979 23.9023 38.2319 24.2923 38.6219C24.2923 38.6219 25.7273 40.0569 26.8783 41.2079C27.4403 41.7699 28.2033 42.0869 28.9993 42.0869C29.7953 42.0869 30.5583 41.7699 31.1203 41.2079C32.2713 40.0569 33.7063 38.6219 33.7063 38.6219C34.0963 38.2319 34.0963 37.5979 33.7063 37.2079C33.3163 36.8179 32.6823 36.8179 32.2923 37.2079L29.9993 39.5009V31.4149C29.9993 30.8629 29.5513 30.4149 28.9993 30.4149C28.4473 30.4149 27.9993 30.8629 27.9993 31.4149V39.5009Z" fill="black"/>
<path fill-rule="evenodd" clip-rule="evenodd" d="M27.9993 39.5009L25.7063 37.2079C25.3163 36.8179 24.6823 36.8179 24.2923 37.2079C23.9023 37.5979 23.9023 38.2319 24.2923 38.6219C24.2923 38.6219 25.7273 40.0569 26.8783 41.2079C27.4403 41.7699 28.2033 42.0869 28.9993 42.0869C29.7953 42.0869 30.5583 41.7699 31.1203 41.2079C32.2713 40.0569 33.7063 38.6219 33.7063 38.6219C34.0963 38.2319 34.0963 37.5979 33.7063 37.2079C33.3163 36.8179 32.6823 36.8179 32.2923 37.2079L29.9993 39.5009V31.4149C29.9993 30.8629 29.5513 30.4149 28.9993 30.4149C28.4473 30.4149 27.9993 30.8629 27.9993 31.4149V39.5009Z" fill="url(#paint4_linear_204_883)"/>
<path fill-rule="evenodd" clip-rule="evenodd" d="M15.9993 43.5009L13.7063 41.2079C13.3163 40.8179 12.6823 40.8179 12.2923 41.2079C11.9023 41.5979 11.9023 42.2319 12.2923 42.6219C12.2923 42.6219 13.7273 44.0569 14.8783 45.2079C15.4403 45.7699 16.2033 46.0869 16.9993 46.0869C17.7953 46.0869 18.5583 45.7699 19.1203 45.2079C20.2713 44.0569 21.7063 42.6219 21.7063 42.6219C22.0963 42.2319 22.0963 41.5979 21.7063 41.2079C21.3163 40.8179 20.6823 40.8179 20.2923 41.2079L17.9993 43.5009V35.4149C17.9993 34.8629 17.5513 34.4149 16.9993 34.4149C16.4473 34.4149 15.9993 34.8629 15.9993 35.4149V43.5009Z" fill="black"/>
<path fill-rule="evenodd" clip-rule="evenodd" d="M15.9993 43.5009L13.7063 41.2079C13.3163 40.8179 12.6823 40.8179 12.2923 41.2079C11.9023 41.5979 11.9023 42.2319 12.2923 42.6219C12.2923 42.6219 13.7273 44.0569 14.8783 45.2079C15.4403 45.7699 16.2033 46.0869 16.9993 46.0869C17.7953 46.0869 18.5583 45.7699 19.1203 45.2079C20.2713 44.0569 21.7063 42.6219 21.7063 42.6219C22.0963 42.2319 22.0963 41.5979 21.7063 41.2079C21.3163 40.8179 20.6823 40.8179 20.2923 41.2079L17.9993 43.5009V35.4149C17.9993 34.8629 17.5513 34.4149 16.9993 34.4149C16.4473 34.4149 15.9993 34.8629 15.9993 35.4149V43.5009Z" fill="url(#paint5_linear_204_883)"/>
<defs>
<linearGradient id="paint0_linear_204_883" x1="7.01907" y1="28.4149" x2="32.7416" y2="23.3241" gradientUnits="userSpaceOnUse">
<stop stop-color="#0158F7"/>
<stop offset="1" stop-color="#7839EE"/>
</linearGradient>
<linearGradient id="paint1_linear_204_883" x1="3.69234" y1="32.4149" x2="37.9891" y2="25.6272" gradientUnits="userSpaceOnUse">
<stop stop-color="#0158F7"/>
<stop offset="1" stop-color="#7839EE"/>
</linearGradient>
<linearGradient id="paint2_linear_204_883" x1="13.6725" y1="23.4149" x2="22.47" y2="22.42" gradientUnits="userSpaceOnUse">
<stop stop-color="#0158F7"/>
<stop offset="1" stop-color="#7839EE"/>
</linearGradient>
<linearGradient id="paint3_linear_204_883" x1="0.841256" y1="42.0869" x2="11.6665" y2="40.2516" gradientUnits="userSpaceOnUse">
<stop stop-color="#0158F7"/>
<stop offset="1" stop-color="#7839EE"/>
</linearGradient>
<linearGradient id="paint4_linear_204_883" x1="24.8413" y1="42.0869" x2="35.6665" y2="40.2515" gradientUnits="userSpaceOnUse">
<stop stop-color="#0158F7"/>
<stop offset="1" stop-color="#7839EE"/>
</linearGradient>
<linearGradient id="paint5_linear_204_883" x1="12.8413" y1="46.0869" x2="23.6665" y2="44.2515" gradientUnits="userSpaceOnUse">
<stop stop-color="#0158F7"/>
<stop offset="1" stop-color="#7839EE"/>
</linearGradient>
</defs>
</svg>
