<svg width="40" height="42" viewBox="0 0 40 42" fill="none" xmlns="http://www.w3.org/2000/svg">
<path d="M27.9993 6.62234C27.9993 6.21457 28.1573 5.8235 28.4386 5.53516C28.7199 5.24682 29.1014 5.08484 29.4993 5.08484H34.4993C34.8971 5.08484 35.2786 5.24682 35.5599 5.53516C35.8412 5.8235 35.9993 6.21457 35.9993 6.62234V11.7473C35.9993 12.1551 35.8412 12.5462 35.5599 12.8345C35.2786 13.1229 34.8971 13.2848 34.4993 13.2848C34.1014 13.2848 33.7199 13.1229 33.4386 12.8345C33.1573 12.5462 32.9993 12.1551 32.9993 11.7473V10.3328L24.0593 19.4963C23.778 19.7843 23.3968 19.946 22.9993 19.946C22.6018 19.946 22.2205 19.7843 21.9393 19.4963L16.9993 14.4328L8.55927 23.0838C8.42195 23.2349 8.25634 23.3561 8.07235 23.4401C7.88835 23.5241 7.68972 23.5693 7.48831 23.573C7.28691 23.5766 7.08685 23.5386 6.90007 23.4613C6.7133 23.384 6.54363 23.2689 6.40119 23.1229C6.25876 22.9769 6.14647 22.803 6.07102 22.6115C5.99558 22.4201 5.95853 22.215 5.96209 22.0086C5.96564 21.8021 6.00972 21.5985 6.09171 21.4099C6.17369 21.2213 6.2919 21.0516 6.43927 20.9108L15.9393 11.1733C16.2205 10.8854 16.6018 10.7237 16.9993 10.7237C17.3968 10.7237 17.778 10.8854 18.0593 11.1733L22.9993 16.2368L30.8793 8.15984H29.4993C29.1014 8.15984 28.7199 7.99785 28.4386 7.70952C28.1573 7.42118 27.9993 7.03011 27.9993 6.62234ZM7.49927 29.6848C7.89709 29.6848 8.27863 29.8468 8.55993 30.1352C8.84123 30.4235 8.99927 30.8146 8.99927 31.2223V36.3473C8.99927 36.7551 8.84123 37.1462 8.55993 37.4345C8.27863 37.7229 7.89709 37.8848 7.49927 37.8848C7.10144 37.8848 6.71991 37.7229 6.43861 37.4345C6.1573 37.1462 5.99927 36.7551 5.99927 36.3473V31.2223C5.99927 30.8146 6.1573 30.4235 6.43861 30.1352C6.71991 29.8468 7.10144 29.6848 7.49927 29.6848ZM16.9993 25.0723C16.9993 24.6646 16.8412 24.2735 16.5599 23.9852C16.2786 23.6968 15.8971 23.5348 15.4993 23.5348C15.1014 23.5348 14.7199 23.6968 14.4386 23.9852C14.1573 24.2735 13.9993 24.6646 13.9993 25.0723V36.3473C13.9993 36.7551 14.1573 37.1462 14.4386 37.4345C14.7199 37.7229 15.1014 37.8848 15.4993 37.8848C15.8971 37.8848 16.2786 37.7229 16.5599 37.4345C16.8412 37.1462 16.9993 36.7551 16.9993 36.3473V25.0723ZM23.4993 27.6348C23.8971 27.6348 24.2786 27.7968 24.5599 28.0852C24.8412 28.3735 24.9993 28.7646 24.9993 29.1723V36.3473C24.9993 36.7551 24.8412 37.1462 24.5599 37.4345C24.2786 37.7229 23.8971 37.8848 23.4993 37.8848C23.1014 37.8848 22.7199 37.7229 22.4386 37.4345C22.1573 37.1462 21.9993 36.7551 21.9993 36.3473V29.1723C21.9993 28.7646 22.1573 28.3735 22.4386 28.0852C22.7199 27.7968 23.1014 27.6348 23.4993 27.6348ZM32.9993 20.9723C32.9993 20.5646 32.8412 20.1735 32.5599 19.8852C32.2786 19.5968 31.8971 19.4348 31.4993 19.4348C31.1014 19.4348 30.7199 19.5968 30.4386 19.8852C30.1573 20.1735 29.9993 20.5646 29.9993 20.9723V36.3473C29.9993 36.7551 30.1573 37.1462 30.4386 37.4345C30.7199 37.7229 31.1014 37.8848 31.4993 37.8848C31.8971 37.8848 32.2786 37.7229 32.5599 37.4345C32.8412 37.1462 32.9993 36.7551 32.9993 36.3473V20.9723Z" fill="black"/>
<path d="M27.9993 6.62234C27.9993 6.21457 28.1573 5.8235 28.4386 5.53516C28.7199 5.24682 29.1014 5.08484 29.4993 5.08484H34.4993C34.8971 5.08484 35.2786 5.24682 35.5599 5.53516C35.8412 5.8235 35.9993 6.21457 35.9993 6.62234V11.7473C35.9993 12.1551 35.8412 12.5462 35.5599 12.8345C35.2786 13.1229 34.8971 13.2848 34.4993 13.2848C34.1014 13.2848 33.7199 13.1229 33.4386 12.8345C33.1573 12.5462 32.9993 12.1551 32.9993 11.7473V10.3328L24.0593 19.4963C23.778 19.7843 23.3968 19.946 22.9993 19.946C22.6018 19.946 22.2205 19.7843 21.9393 19.4963L16.9993 14.4328L8.55927 23.0838C8.42195 23.2349 8.25634 23.3561 8.07235 23.4401C7.88835 23.5241 7.68972 23.5693 7.48831 23.573C7.28691 23.5766 7.08685 23.5386 6.90007 23.4613C6.7133 23.384 6.54363 23.2689 6.40119 23.1229C6.25876 22.9769 6.14647 22.803 6.07102 22.6115C5.99558 22.4201 5.95853 22.215 5.96209 22.0086C5.96564 21.8021 6.00972 21.5985 6.09171 21.4099C6.17369 21.2213 6.2919 21.0516 6.43927 20.9108L15.9393 11.1733C16.2205 10.8854 16.6018 10.7237 16.9993 10.7237C17.3968 10.7237 17.778 10.8854 18.0593 11.1733L22.9993 16.2368L30.8793 8.15984H29.4993C29.1014 8.15984 28.7199 7.99785 28.4386 7.70952C28.1573 7.42118 27.9993 7.03011 27.9993 6.62234ZM7.49927 29.6848C7.89709 29.6848 8.27863 29.8468 8.55993 30.1352C8.84123 30.4235 8.99927 30.8146 8.99927 31.2223V36.3473C8.99927 36.7551 8.84123 37.1462 8.55993 37.4345C8.27863 37.7229 7.89709 37.8848 7.49927 37.8848C7.10144 37.8848 6.71991 37.7229 6.43861 37.4345C6.1573 37.1462 5.99927 36.7551 5.99927 36.3473V31.2223C5.99927 30.8146 6.1573 30.4235 6.43861 30.1352C6.71991 29.8468 7.10144 29.6848 7.49927 29.6848ZM16.9993 25.0723C16.9993 24.6646 16.8412 24.2735 16.5599 23.9852C16.2786 23.6968 15.8971 23.5348 15.4993 23.5348C15.1014 23.5348 14.7199 23.6968 14.4386 23.9852C14.1573 24.2735 13.9993 24.6646 13.9993 25.0723V36.3473C13.9993 36.7551 14.1573 37.1462 14.4386 37.4345C14.7199 37.7229 15.1014 37.8848 15.4993 37.8848C15.8971 37.8848 16.2786 37.7229 16.5599 37.4345C16.8412 37.1462 16.9993 36.7551 16.9993 36.3473V25.0723ZM23.4993 27.6348C23.8971 27.6348 24.2786 27.7968 24.5599 28.0852C24.8412 28.3735 24.9993 28.7646 24.9993 29.1723V36.3473C24.9993 36.7551 24.8412 37.1462 24.5599 37.4345C24.2786 37.7229 23.8971 37.8848 23.4993 37.8848C23.1014 37.8848 22.7199 37.7229 22.4386 37.4345C22.1573 37.1462 21.9993 36.7551 21.9993 36.3473V29.1723C21.9993 28.7646 22.1573 28.3735 22.4386 28.0852C22.7199 27.7968 23.1014 27.6348 23.4993 27.6348ZM32.9993 20.9723C32.9993 20.5646 32.8412 20.1735 32.5599 19.8852C32.2786 19.5968 31.8971 19.4348 31.4993 19.4348C31.1014 19.4348 30.7199 19.5968 30.4386 19.8852C30.1573 20.1735 29.9993 20.5646 29.9993 20.9723V36.3473C29.9993 36.7551 30.1573 37.1462 30.4386 37.4345C30.7199 37.7229 31.1014 37.8848 31.4993 37.8848C31.8971 37.8848 32.2786 37.7229 32.5599 37.4345C32.8412 37.1462 32.9993 36.7551 32.9993 36.3473V20.9723Z" fill="url(#paint0_linear_204_907)"/>
<defs>
<linearGradient id="paint0_linear_204_907" x1="8.48975" y1="37.8848" x2="40.8801" y2="32.0143" gradientUnits="userSpaceOnUse">
<stop stop-color="#0158F7"/>
<stop offset="1" stop-color="#7839EE"/>
</linearGradient>
</defs>
</svg>
