<svg width="36" height="37" viewBox="0 0 36 37" fill="none" xmlns="http://www.w3.org/2000/svg">
<g clip-path="url(#clip0_204_1215)">
<path d="M13.3198 7.53021C9.59271 7.53021 6.55981 10.5631 6.55981 14.2902V23.6502C6.55981 27.3773 9.59271 30.4102 13.3198 30.4102H22.6798C26.4069 30.4102 29.4398 27.3773 29.4398 23.6502V14.2902C29.4398 10.5631 26.4069 7.53021 22.6798 7.53021H13.3198ZM13.3198 8.57021H22.6798C25.8448 8.57021 28.3998 11.1252 28.3998 14.2902V23.6502C28.3998 26.8152 25.8448 29.3702 22.6798 29.3702H13.3198C10.1548 29.3702 7.59981 26.8152 7.59981 23.6502V14.2902C7.59981 11.1252 10.1548 8.57021 13.3198 8.57021ZM24.2398 11.6902C23.964 11.6902 23.6995 11.7998 23.5044 11.9948C23.3094 12.1899 23.1998 12.4544 23.1998 12.7302C23.1998 13.006 23.3094 13.2706 23.5044 13.4656C23.6995 13.6606 23.964 13.7702 24.2398 13.7702C24.5156 13.7702 24.7802 13.6606 24.9752 13.4656C25.1702 13.2706 25.2798 13.006 25.2798 12.7302C25.2798 12.4544 25.1702 12.1899 24.9752 11.9948C24.7802 11.7998 24.5156 11.6902 24.2398 11.6902ZM17.9998 13.2502C14.8469 13.2502 12.2798 15.8173 12.2798 18.9702C12.2798 22.1231 14.8469 24.6902 17.9998 24.6902C21.1527 24.6902 23.7198 22.1231 23.7198 18.9702C23.7198 15.8173 21.1527 13.2502 17.9998 13.2502ZM17.9998 14.2902C20.5907 14.2902 22.6798 16.3794 22.6798 18.9702C22.6798 21.5611 20.5907 23.6502 17.9998 23.6502C15.409 23.6502 13.3198 21.5611 13.3198 18.9702C13.3198 16.3794 15.409 14.2902 17.9998 14.2902Z" fill="white"/>
</g>
<rect x="0.499268" y="1.47015" width="35" height="35" rx="5.5" stroke="#D3D3D3"/>
<defs>
<clipPath id="clip0_204_1215">
<rect x="-0.000732422" y="0.970154" width="36" height="36" rx="6" fill="white"/>
</clipPath>
</defs>
</svg>
