<svg width="36" height="37" viewBox="0 0 36 37" fill="none" xmlns="http://www.w3.org/2000/svg">
<g clip-path="url(#clip0_204_1209)">
<path d="M18.758 26.4037H15.4209V16.3924H18.758V18.061C19.4694 17.156 20.548 16.6165 21.6988 16.5901C23.7683 16.6016 25.4382 18.2857 25.4322 20.3553V26.4037H22.0951V20.7723C21.9617 19.8401 21.1622 19.1485 20.2205 19.1505C19.8087 19.1636 19.4198 19.3439 19.1438 19.6499C18.8679 19.9561 18.7286 20.3613 18.758 20.7723V26.4037ZM13.7524 26.4037H10.4153V16.3924H13.7524V26.4037ZM12.0838 14.7239C11.1623 14.7239 10.4153 13.9768 10.4153 13.0553C10.4153 12.1338 11.1623 11.3868 12.0838 11.3868C13.0053 11.3868 13.7524 12.1338 13.7524 13.0553C13.7524 13.4979 13.5766 13.9223 13.2637 14.2352C12.9508 14.5481 12.5264 14.7239 12.0838 14.7239Z" fill="white"/>
</g>
<rect x="0.499268" y="1.47015" width="35" height="35" rx="5.5" stroke="#D3D3D3"/>
<defs>
<clipPath id="clip0_204_1209">
<rect x="-0.000732422" y="0.970154" width="36" height="36" rx="6" fill="white"/>
</clipPath>
</defs>
</svg>
