<svg width="44" height="45" viewBox="0 0 44 45" fill="none" xmlns="http://www.w3.org/2000/svg">
<rect x="-0.000732422" y="0.779785" width="44" height="44" rx="6" fill="#151E34" fill-opacity="0.12"/>
<path d="M12.9843 21.3171C12.7072 21.2389 12.4624 21.074 12.2859 20.8466C12.1093 20.6191 12.0103 20.3411 12.0033 20.0533C11.9963 19.7655 12.0817 19.483 12.247 19.2472C12.4123 19.0115 12.6488 18.8349 12.9218 18.7434L31.1043 12.8133C31.2234 12.7745 31.351 12.7693 31.4728 12.7983C31.5947 12.8273 31.7062 12.8894 31.795 12.9778C31.8838 13.0661 31.9465 13.1773 31.9762 13.299C32.0058 13.4207 32.0013 13.5483 31.9631 13.6676L26.0376 31.8592C25.9464 32.1326 25.77 32.3696 25.5341 32.5353C25.2982 32.7009 25.0154 32.7865 24.7273 32.7794C24.4391 32.7723 24.1609 32.6729 23.9334 32.4958C23.706 32.3188 23.5414 32.0734 23.4639 31.7958L21.7159 24.5338C21.5399 23.8028 20.969 23.2323 20.2379 23.057L12.9843 21.3171Z" stroke="black" stroke-width="2" stroke-linecap="round" stroke-linejoin="round"/>
<path d="M31.7956 12.9764L21.4292 23.3427" stroke="black" stroke-width="2" stroke-linecap="round" stroke-linejoin="round"/>
</svg>
