<svg width="200" height="68" viewBox="0 0 200 68" fill="none" xmlns="http://www.w3.org/2000/svg">
<g clip-path="url(#clip0_204_1220)">
<g clip-path="url(#clip1_204_1220)">
<g clip-path="url(#clip2_204_1220)">
<path d="M26.3605 1.41205C26.7087 1.41205 27.0417 1.47853 27.3478 1.59969C30.4166 2.21341 33.3216 3.44256 35.8847 5.21448C38.6133 7.10069 40.8895 9.55712 42.5567 12.4145C44.2239 15.2718 45.242 18.462 45.5413 21.7653C45.824 24.8862 45.4586 28.0381 44.4695 31.0265C44.2005 32.295 43.1151 33.2438 41.8171 33.2438C40.317 33.2438 39.1008 31.9762 39.1008 30.4126C39.1008 30.2022 39.1228 29.9972 39.1645 29.7997L39.1621 29.7989C39.2287 29.5753 39.2914 29.3496 39.3498 29.122C40.0653 26.8997 40.3293 24.5638 40.1233 22.2509C39.8978 19.7184 39.1145 17.2747 37.8285 15.0916C36.5425 12.9083 34.7849 11.0383 32.6789 9.6126C32.0637 9.19619 31.4232 8.82065 30.7616 8.48768C29.0703 7.56989 27.2137 6.94691 25.2517 6.68218C24.3041 6.2521 23.644 5.28758 23.644 4.16672C23.644 2.64535 24.8602 1.41205 26.3605 1.41205Z" fill="url(#paint0_linear_204_1220)"/>
<path d="M18.2871 7.25029C19.1931 6.79133 19.8176 5.82291 19.8176 4.70245C19.8176 3.13884 18.6014 1.87128 17.101 1.87128C16.9901 1.87128 16.8809 1.8782 16.7733 1.89167L16.7682 1.87307C16.7181 1.88718 16.6679 1.90147 16.6179 1.91594C16.4299 1.95111 16.2486 2.00647 16.0762 2.07974C13.0001 3.05199 10.1583 4.67361 7.73882 6.8412C5.13886 9.17038 3.09452 12.069 1.76035 15.3181C0.42616 18.5671 -0.162942 22.0816 0.0375357 25.5957C0.238027 29.1097 1.22286 32.5315 2.91762 35.6025C4.61236 38.6735 6.97273 41.3134 9.82013 43.3223C12.6677 45.3313 15.9278 46.657 19.3543 47.1992C22.7806 47.7413 26.2836 47.4859 29.5985 46.452C32.7717 45.4621 35.6931 43.7839 38.1609 41.5355C38.9949 41.0523 39.5593 40.1244 39.5593 39.0593C39.5593 37.4957 38.3431 36.2282 36.8429 36.2282C36.2667 36.2282 35.7324 36.4151 35.2928 36.734C32.227 40.1467 27.9013 42.2731 23.1078 42.2731C20.4868 42.2731 18.0058 41.6373 15.794 40.5032C14.8199 40.0594 13.8851 39.5239 13.0019 38.9013C10.831 37.3711 9.03058 35.3565 7.73727 33.0104C6.44397 30.6643 5.69192 28.0485 5.53813 25.3617C5.38435 22.6751 5.83292 19.9878 6.8497 17.5042C7.86647 15.0207 9.42493 12.8061 11.4065 11.0285C13.1595 9.45618 15.2029 8.2623 17.4131 7.51516C17.706 7.48033 17.9851 7.39663 18.2424 7.27234L18.2485 7.29467C18.2639 7.28962 18.2795 7.2847 18.2949 7.27978L18.2871 7.25029Z" fill="url(#paint1_linear_204_1220)"/>
<path fill-rule="evenodd" clip-rule="evenodd" d="M30.3486 26.6257C32.3254 25.4746 32.3254 22.6188 30.3486 21.4678L18.948 14.8299C16.9585 13.6715 14.4622 15.1067 14.4622 17.4088V30.6847C14.4622 32.9867 16.9585 34.4219 18.948 33.2635L30.3486 26.6257ZM24.805 24.1674C24.9546 24.0785 24.9546 23.862 24.805 23.773L19.8595 20.8301C19.7063 20.7392 19.5124 20.8495 19.5124 21.0274V26.913C19.5124 27.0911 19.7063 27.2013 19.8595 27.1103L24.805 24.1674Z" fill="white"/>
<path d="M57.3176 29.5275V26.199H62.4999V29.4432C62.4999 30.9318 62.8791 31.9991 63.6375 32.6452C64.4238 33.2912 65.5053 33.6143 66.8815 33.6143C67.7803 33.6143 68.5387 33.5299 69.1567 33.3614C69.7747 33.1929 70.238 33.0104 70.5471 32.8137V26.199H75.7292V33.2351C75.7292 33.881 75.6169 34.4287 75.3922 34.8782C75.1956 35.2995 74.8024 35.6928 74.2125 36.0579C73.398 36.5354 72.3587 36.9286 71.0948 37.2376C69.8588 37.5747 68.4405 37.7432 66.8394 37.7432C64.9014 37.7432 63.2161 37.4622 61.7836 36.9005C60.3511 36.3387 59.2417 35.454 58.4552 34.2462C57.6968 33.0104 57.3176 31.4374 57.3176 29.5275ZM75.7292 28.2213H70.5471V17.2671C70.7718 17.2109 71.0948 17.1547 71.5161 17.0986C71.9655 17.0143 72.429 16.9721 72.9064 16.9721C73.8895 16.9721 74.6057 17.1406 75.0552 17.4778C75.5045 17.8148 75.7292 18.4468 75.7292 19.3737V28.2213ZM62.4999 28.2213H57.3176V17.2671C57.5424 17.2109 57.8653 17.1547 58.2867 17.0986C58.708 17.0143 59.1714 16.9721 59.6771 16.9721C60.6601 16.9721 61.3764 17.1406 61.8257 17.4778C62.2752 17.8148 62.4999 18.4468 62.4999 19.3737V28.2213ZM98.2879 24.1345V28.2213H93.1057V24.3452C93.1057 23.1094 92.7546 22.2105 92.0523 21.6487C91.3502 21.059 90.4092 20.764 89.2295 20.764C88.3588 20.764 87.5723 20.8764 86.8702 21.101C86.1961 21.2977 85.5922 21.5364 85.0586 21.8174V28.2213H79.8763V21.4802C79.8763 20.8062 80.0168 20.2585 80.2976 19.8371C80.5786 19.3878 80.9998 18.9805 81.5615 18.6154C82.4042 18.0536 83.4856 17.5901 84.8057 17.2249C86.154 16.8317 87.6426 16.6351 89.2717 16.6351C92.1086 16.6351 94.3134 17.2671 95.8864 18.531C97.4875 19.7949 98.2879 21.6628 98.2879 24.1345ZM79.8763 26.1568H85.0586V37.069C84.8338 37.1533 84.5109 37.2236 84.0895 37.2797C83.6682 37.364 83.2048 37.4062 82.6991 37.4062C81.7441 37.4062 81.0279 37.2376 80.5505 36.9005C80.101 36.5354 79.8763 35.9035 79.8763 35.0045V26.1568ZM93.1057 26.1568H98.2879V37.069C98.0913 37.1533 97.7683 37.2236 97.3188 37.2797C96.8976 37.364 96.4482 37.4062 95.9707 37.4062C94.9876 37.4062 94.2574 37.2376 93.7798 36.9005C93.3305 36.5354 93.1057 35.9035 93.1057 35.0045V26.1568ZM117.896 31.5077C117.896 33.4739 117.166 35.0186 115.705 36.1421C114.245 37.2375 112.124 37.7854 109.344 37.7854C107.097 37.7854 105.257 37.4482 103.824 36.7741C102.392 36.1001 101.676 35.2012 101.676 34.0777C101.676 33.6002 101.788 33.1648 102.013 32.7716C102.237 32.3502 102.532 32.0272 102.897 31.8025C103.684 32.3082 104.597 32.7575 105.636 33.1508C106.675 33.544 107.855 33.7406 109.175 33.7406C111.562 33.7406 112.756 33.0104 112.756 31.5498C112.756 30.9318 112.546 30.4404 112.124 30.0752C111.703 29.682 111.057 29.401 110.186 29.2325L107.785 28.6005C105.734 28.1512 104.204 27.449 103.192 26.494C102.209 25.539 101.718 24.261 101.718 22.6599C101.718 20.8905 102.448 19.4439 103.909 18.3204C105.369 17.1687 107.392 16.5929 109.976 16.5929C111.324 16.5929 112.532 16.7335 113.599 17.0143C114.666 17.2671 115.495 17.6463 116.085 18.1518C116.703 18.6574 117.012 19.2613 117.012 19.9635C117.012 20.441 116.899 20.8764 116.675 21.2695C116.478 21.6348 116.211 21.9156 115.874 22.1122C115.537 21.9156 115.074 21.7049 114.484 21.4802C113.922 21.2275 113.276 21.0309 112.546 20.8905C111.815 20.7218 111.085 20.6377 110.355 20.6377C109.259 20.6377 108.389 20.8202 107.743 21.1854C107.125 21.5224 106.816 22.014 106.816 22.6599C106.816 23.1375 106.998 23.5447 107.363 23.8818C107.729 24.2189 108.347 24.4856 109.217 24.6822L111.366 25.1879C113.641 25.7216 115.298 26.5081 116.337 27.5472C117.377 28.5585 117.896 29.8786 117.896 31.5077ZM131.405 20.8062C129.72 20.8062 128.302 21.3539 127.15 22.4493C126.026 23.5447 125.465 25.1458 125.465 27.2524C125.465 29.3309 126.012 30.9037 127.108 31.9712C128.203 33.0385 129.622 33.5721 131.363 33.5721C132.402 33.5721 133.273 33.4458 133.975 33.1929C134.706 32.912 135.338 32.6171 135.872 32.3082C136.293 32.5609 136.616 32.8699 136.841 33.2351C137.093 33.5721 137.219 33.9935 137.219 34.499C137.219 35.454 136.643 36.2405 135.492 36.8585C134.341 37.4482 132.824 37.7432 130.942 37.7432C128.807 37.7432 126.925 37.364 125.296 36.6056C123.695 35.8191 122.431 34.6394 121.504 33.0666C120.605 31.4936 120.156 29.5555 120.156 27.2524C120.156 24.8648 120.634 22.8847 121.589 21.3117C122.572 19.7389 123.864 18.5732 125.465 17.8148C127.094 17.0283 128.877 16.6351 130.815 16.6351C132.669 16.6351 134.158 16.9581 135.281 17.6041C136.405 18.2502 136.966 19.0506 136.966 20.0056C136.966 20.427 136.854 20.8202 136.63 21.1854C136.405 21.5505 136.138 21.8454 135.83 22.0701C135.268 21.7331 134.635 21.4382 133.933 21.1854C133.231 20.9325 132.388 20.8062 131.405 20.8062ZM145.453 21.9859V27.7579H140.27V21.5645C140.27 20.8624 140.438 20.2725 140.776 19.7949C141.112 19.2894 141.591 18.8259 142.208 18.4047C143.05 17.899 144.118 17.4778 145.41 17.1406C146.701 16.8036 148.092 16.6351 149.581 16.6351C152.222 16.6351 153.542 17.4497 153.542 19.0787C153.542 19.472 153.485 19.8371 153.373 20.1741C153.261 20.4832 153.12 20.764 152.951 21.0168C152.67 20.9606 152.319 20.9185 151.899 20.8905C151.477 20.8343 151.027 20.8062 150.55 20.8062C149.539 20.8062 148.584 20.9185 147.685 21.1432C146.815 21.3398 146.07 21.6208 145.453 21.9859ZM140.27 26.0305L145.453 26.2833V37.069C145.227 37.1533 144.904 37.2236 144.482 37.2797C144.062 37.364 143.599 37.4062 143.093 37.4062C142.138 37.4062 141.422 37.2376 140.945 36.9005C140.495 36.5354 140.27 35.9035 140.27 35.0045V26.0305ZM155.457 11.2844C155.457 10.4698 155.738 9.78165 156.3 9.21989C156.889 8.65814 157.62 8.37726 158.491 8.37726C159.389 8.37726 160.105 8.65814 160.639 9.21989C161.201 9.78165 161.482 10.4698 161.482 11.2844C161.482 12.0708 161.201 12.759 160.639 13.3488C160.105 13.9106 159.389 14.1914 158.491 14.1914C157.62 14.1914 156.889 13.9106 156.3 13.3488C155.738 12.759 155.457 12.0708 155.457 11.2844ZM155.878 26.0305H161.103V37.069C160.878 37.1533 160.555 37.2236 160.134 37.2797C159.712 37.364 159.249 37.4062 158.743 37.4062C157.788 37.4062 157.072 37.2376 156.595 36.9005C156.118 36.5354 155.878 35.9035 155.878 35.0045V26.0305ZM161.103 28.6848H155.878V17.3935C156.103 17.3093 156.426 17.239 156.847 17.1828C157.297 17.0986 157.774 17.0564 158.28 17.0564C159.264 17.0564 159.98 17.239 160.428 17.6041C160.878 17.9412 161.103 18.5732 161.103 19.5001V28.6848ZM174.828 37.7432C173.704 37.7432 172.68 37.5887 171.753 37.2797C170.854 36.9989 170.11 36.6758 169.519 36.3106V31.8447C170.053 32.2941 170.685 32.7014 171.415 33.0666C172.173 33.4036 173.058 33.5721 174.069 33.5721C175.755 33.5721 177.089 33.0525 178.072 32.0132C179.055 30.9459 179.546 29.3028 179.546 27.0839C179.546 25.539 179.308 24.3171 178.83 23.4183C178.381 22.4914 177.749 21.8174 176.934 21.396C176.12 20.9747 175.207 20.764 174.196 20.764C173.41 20.764 172.722 20.8624 172.131 21.059C171.542 21.2275 171.037 21.4382 170.615 21.6909V35.0045H165.432V21.1854C165.432 20.5393 165.56 20.0056 165.812 19.5843C166.065 19.1631 166.485 18.7698 167.076 18.4047C167.891 17.9271 168.901 17.5198 170.11 17.1828C171.316 16.8177 172.68 16.6351 174.196 16.6351C176.246 16.6351 178.072 17.0002 179.673 17.7305C181.274 18.4328 182.524 19.5563 183.423 21.101C184.35 22.6459 184.814 24.6402 184.814 27.0839C184.814 29.4432 184.378 31.4094 183.507 32.9822C182.665 34.5552 181.485 35.7489 179.968 36.5635C178.48 37.35 176.766 37.7432 174.828 37.7432ZM170.615 33.5721V44.6949C170.391 44.7791 170.068 44.8494 169.646 44.9056C169.224 44.9898 168.761 45.032 168.255 45.032C167.3 45.032 166.584 44.8494 166.107 44.4843C165.657 44.1191 165.432 43.4871 165.432 42.5883V33.5299L170.615 33.5721ZM188.034 26.0305H193.216V31.0021C193.216 31.929 193.482 32.589 194.016 32.9822C194.578 33.3755 195.365 33.5721 196.376 33.5721C196.824 33.5721 197.303 33.5159 197.808 33.4036C198.342 33.2912 198.791 33.1508 199.157 32.9822C199.353 33.207 199.535 33.4739 199.704 33.7828C199.873 34.0917 199.957 34.4709 199.957 34.9204C199.957 35.7348 199.564 36.409 198.777 36.9426C198.019 37.4763 196.824 37.7432 195.196 37.7432C192.977 37.7432 191.222 37.2516 189.93 36.2686C188.665 35.2574 188.034 33.6283 188.034 31.3813V26.0305ZM191.193 21.7331V17.6463H199.451C199.564 17.8429 199.676 18.1237 199.788 18.4889C199.928 18.854 199.999 19.2332 199.999 19.6264C199.999 20.3286 199.83 20.8624 199.493 21.2275C199.157 21.5645 198.72 21.7331 198.187 21.7331H191.193ZM193.216 27.1681H188.034V12.0006C188.258 11.9163 188.581 11.8321 189.003 11.7478C189.451 11.6635 189.915 11.6214 190.393 11.6214C191.376 11.6214 192.092 11.804 192.542 12.1691C192.991 12.5062 193.216 13.1241 193.216 14.0229V27.1681Z" fill="white"/>
</g>
</g>
</g>
<defs>
<linearGradient id="paint0_linear_204_1220" x1="-2.4358" y1="1.41205" x2="19.7632" y2="54.7432" gradientUnits="userSpaceOnUse">
<stop stop-color="#145B98"/>
<stop offset="1" stop-color="#36CED2"/>
</linearGradient>
<linearGradient id="paint1_linear_204_1220" x1="21.5458" y1="1.37399" x2="40.1406" y2="43.0267" gradientUnits="userSpaceOnUse">
<stop stop-color="#FFA656"/>
<stop offset="1" stop-color="#EE614F"/>
</linearGradient>
<clipPath id="clip0_204_1220">
<rect width="200" height="47.3" fill="white" transform="translate(-0.000732422 0.279724)"/>
</clipPath>
<clipPath id="clip1_204_1220">
<rect width="200" height="47.3" fill="white" transform="translate(-0.000732422 0.279724)"/>
</clipPath>
<clipPath id="clip2_204_1220">
<rect width="200" height="47.2973" fill="white" transform="translate(-0.000732422 0.281067)"/>
</clipPath>
</defs>
</svg>
